<?xml version="1.0" encoding="UTF-8" standalone="no"?>
<!-- Created with Inkscape (http://www.inkscape.org/) -->

<svg
   xmlns:dc="http://purl.org/dc/elements/1.1/"
   xmlns:cc="http://creativecommons.org/ns#"
   xmlns:rdf="http://www.w3.org/1999/02/22-rdf-syntax-ns#"
   xmlns:svg="http://www.w3.org/2000/svg"
   xmlns="http://www.w3.org/2000/svg"
   xmlns:sodipodi="http://sodipodi.sourceforge.net/DTD/sodipodi-0.dtd"
   xmlns:inkscape="http://www.inkscape.org/namespaces/inkscape"
   width="60.739288"
   height="60.739239"
   viewBox="0 0 16.070603 16.070591"
   version="1.1"
   id="svg8"
   inkscape:version="0.92.3 (2405546, 2018-03-11)"
   sodipodi:docname="alldesktops.svg">
  <defs
     id="defs2" />
  <sodipodi:namedview
     id="base"
     pagecolor="#ffffff"
     bordercolor="#666666"
     borderopacity="1.0"
     inkscape:pageopacity="0.0"
     inkscape:pageshadow="2"
     inkscape:zoom="5.732171"
     inkscape:cx="33.811624"
     inkscape:cy="36.709778"
     inkscape:document-units="px"
     inkscape:current-layer="layer1"
     showgrid="false"
     units="px"
     inkscape:pagecheckerboard="true"
     inkscape:showpageshadow="false"
     inkscape:window-width="1403"
     inkscape:window-height="988"
     inkscape:window-x="136"
     inkscape:window-y="91"
     inkscape:window-maximized="0"
     fit-margin-top="5"
     fit-margin-left="5"
     fit-margin-right="5"
     fit-margin-bottom="5" />
  <metadata
     id="metadata5">
    <rdf:RDF>
      <cc:Work
         rdf:about="">
        <dc:format>image/svg+xml</dc:format>
        <dc:type
           rdf:resource="http://purl.org/dc/dcmitype/StillImage" />
        <dc:title />
      </cc:Work>
    </rdf:RDF>
  </metadata>
  <g
     inkscape:label="Layer 1"
     inkscape:groupmode="layer"
     id="layer1"
     transform="translate(0.78122977,-288.91909)">
    <g
       id="active-center">
      <rect
         y="289.96814"
         x="0.091565393"
         height="6.614583"
         width="6.614583"
         id="rect3862"
         style="opacity:1;fill:none;fill-opacity:0.15811965;fill-rule:nonzero;stroke:none;stroke-width:0.25183001;stroke-linecap:square;stroke-linejoin:round;stroke-miterlimit:4;stroke-dasharray:none;stroke-dashoffset:0;stroke-opacity:1" />
      <path
         inkscape:connector-curvature="0"
         id="path849"
         d="m 3.3988569,291.15878 a 1.4283105,1.4587 0 0 0 -1.4282708,1.45894 1.4283105,1.4587 0 0 0 0.029299,0.28642 c -0.037364,0.49382 1.0585366,2.48797 1.3989716,2.48797 0.3393821,0 1.4297926,-1.98208 1.399519,-2.48359 a 1.4283105,1.4587 0 0 0 0.028752,-0.2908 1.4283105,1.4587 0 0 0 -1.4282708,-1.45894 z m 0,0.49836 a 0.89752921,0.89752921 0 0 1 0.897598,0.8976 0.89752921,0.89752921 0 0 1 -0.897598,0.8976 0.89752921,0.89752921 0 0 1 -0.8975982,-0.8976 0.89752921,0.89752921 0 0 1 0.8975982,-0.8976 z"
         style="opacity:1;fill:#f9f9f9;fill-opacity:1;fill-rule:nonzero;stroke:none;stroke-width:0.36077353;stroke-linecap:square;stroke-linejoin:round;stroke-miterlimit:4;stroke-dasharray:none;stroke-dashoffset:0;stroke-opacity:1" />
    </g>
    <g
       id="inactive-center"
       transform="translate(6.6145832,6.6145935)">
      <rect
         style="opacity:1;fill:none;fill-opacity:0.15811965;fill-rule:nonzero;stroke:none;stroke-width:0.25183001;stroke-linecap:square;stroke-linejoin:round;stroke-miterlimit:4;stroke-dasharray:none;stroke-dashoffset:0;stroke-opacity:1"
         id="rect1456"
         width="6.614583"
         height="6.614583"
         x="0.091565393"
         y="289.96814" />
      <path
         style="opacity:1;fill:#f8f8f8;fill-opacity:0.56470591;fill-rule:nonzero;stroke:none;stroke-width:0.36077353;stroke-linecap:square;stroke-linejoin:round;stroke-miterlimit:4;stroke-dasharray:none;stroke-dashoffset:0;stroke-opacity:1"
         d="m 3.3988569,291.15878 a 1.4283105,1.4587 0 0 0 -1.4282708,1.45894 1.4283105,1.4587 0 0 0 0.029299,0.28642 c -0.037364,0.49382 1.0585366,2.48797 1.3989716,2.48797 0.3393821,0 1.4297926,-1.98208 1.399519,-2.48359 a 1.4283105,1.4587 0 0 0 0.028752,-0.2908 1.4283105,1.4587 0 0 0 -1.4282708,-1.45894 z m 0,0.49836 a 0.89752921,0.89752921 0 0 1 0.897598,0.8976 0.89752921,0.89752921 0 0 1 -0.897598,0.8976 0.89752921,0.89752921 0 0 1 -0.8975982,-0.8976 0.89752921,0.89752921 0 0 1 0.8975982,-0.8976 z"
         id="path1458"
         inkscape:connector-curvature="0" />
    </g>
    <g
       id="hover-center"
       transform="translate(-17.013214,-3.0324402)">
      <rect
         style="opacity:1;fill:none;fill-opacity:0.15811965;fill-rule:nonzero;stroke:none;stroke-width:0.25183001;stroke-linecap:square;stroke-linejoin:round;stroke-miterlimit:4;stroke-dasharray:none;stroke-dashoffset:0;stroke-opacity:1"
         id="rect1444"
         width="6.614583"
         height="6.614583"
         x="23.719362"
         y="293.00058" />
      <rect
         ry="2.9104166"
         rx="2.9104166"
         style="opacity:1;fill:#0101ff;fill-opacity:0.5024155;fill-rule:evenodd;stroke:none;stroke-width:0.23362708;stroke-linecap:round;stroke-linejoin:round;stroke-miterlimit:4;stroke-dasharray:none;stroke-dashoffset:0;stroke-opacity:1;paint-order:normal"
         id="rect2700"
         width="5.8208332"
         height="5.8208332"
         x="24.116238"
         y="293.39746" />
      <path
         style="opacity:1;fill:#f8f8f8;fill-opacity:1;fill-rule:nonzero;stroke:none;stroke-width:0.36077353;stroke-linecap:square;stroke-linejoin:round;stroke-miterlimit:4;stroke-dasharray:none;stroke-dashoffset:0;stroke-opacity:1"
         d="m 27.026655,294.19121 a 1.4283105,1.4587 0 0 0 -1.428271,1.45894 1.4283105,1.4587 0 0 0 0.0293,0.28642 c -0.03736,0.49382 1.058537,2.48797 1.398972,2.48797 0.339382,0 1.429792,-1.98208 1.399519,-2.48359 a 1.4283105,1.4587 0 0 0 0.02875,-0.2908 1.4283105,1.4587 0 0 0 -1.42827,-1.45894 z m 0,0.49836 a 0.89752921,0.89752921 0 0 1 0.897598,0.8976 0.89752921,0.89752921 0 0 1 -0.897598,0.8976 0.89752921,0.89752921 0 0 1 -0.897598,-0.8976 0.89752921,0.89752921 0 0 1 0.897598,-0.8976 z"
         id="path1446"
         inkscape:connector-curvature="0" />
    </g>
    <g
       id="pressed-center">
      <rect
         style="opacity:1;fill:none;fill-opacity:0.15811965;fill-rule:nonzero;stroke:none;stroke-width:0.25183001;stroke-linecap:square;stroke-linejoin:round;stroke-miterlimit:4;stroke-dasharray:none;stroke-dashoffset:0;stroke-opacity:1"
         id="rect1450"
         width="6.614583"
         height="6.614583"
         x="0.091565393"
         y="296.58273" />
      <path
         style="opacity:1;fill:#f8f8f8;fill-opacity:1;fill-rule:nonzero;stroke:none;stroke-width:0.36077353;stroke-linecap:square;stroke-linejoin:round;stroke-miterlimit:4;stroke-dasharray:none;stroke-dashoffset:0;stroke-opacity:1"
         d="m 3.3988569,297.77337 a 1.4283105,1.4587 0 0 0 -1.4282708,1.45894 1.4283105,1.4587 0 0 0 0.029299,0.28642 c -0.037364,0.49382 1.0585366,2.48797 1.3989716,2.48797 0.3393821,0 1.4297926,-1.98208 1.399519,-2.48359 a 1.4283105,1.4587 0 0 0 0.028752,-0.2908 1.4283105,1.4587 0 0 0 -1.4282708,-1.45894 z m 0,0.49836 a 0.89752921,0.89752921 0 0 1 0.897598,0.8976 0.89752921,0.89752921 0 0 1 -0.897598,0.8976 0.89752921,0.89752921 0 0 1 -0.8975982,-0.8976 0.89752921,0.89752921 0 0 1 0.8975982,-0.8976 z"
         id="path1452"
         inkscape:connector-curvature="0" />
      <circle
         r="0.68659449"
         cy="299.15649"
         cx="3.401804"
         id="path1412"
         style="opacity:1;fill:#f8f8f8;fill-opacity:1;fill-rule:evenodd;stroke:none;stroke-width:0.23362711;stroke-linecap:round;stroke-linejoin:round;stroke-miterlimit:4;stroke-dasharray:none;stroke-dashoffset:0;stroke-opacity:0.37647059;paint-order:normal" />
    </g>
  </g>
</svg>
