<?xml version="1.0" encoding="UTF-8" standalone="no"?>
<!-- Created with Inkscape (http://www.inkscape.org/) -->

<svg
   xmlns:dc="http://purl.org/dc/elements/1.1/"
   xmlns:cc="http://creativecommons.org/ns#"
   xmlns:rdf="http://www.w3.org/1999/02/22-rdf-syntax-ns#"
   xmlns:svg="http://www.w3.org/2000/svg"
   xmlns="http://www.w3.org/2000/svg"
   xmlns:sodipodi="http://sodipodi.sourceforge.net/DTD/sodipodi-0.dtd"
   xmlns:inkscape="http://www.inkscape.org/namespaces/inkscape"
   width="146.8933"
   height="120.65587"
   id="svg7229"
   sodipodi:version="0.32"
   inkscape:version="0.92.3 (2405546, 2018-03-11)"
   version="1.0"
   sodipodi:docname="media.svg"
   inkscape:output_extension="org.inkscape.output.svgz.inkscape">
  <defs
     id="defs7231">
    <style
       id="current-color-scheme"
       type="text/css">
      .ColorScheme-Text {
        color:#31363b;
      }
      .ColorScheme-Background{
        color:#eff0f1;
      }
      .ColorScheme-ViewText {
        color:#31363b;
      }
      .ColorScheme-ViewBackground{
        color:#ffffff;
      }
      .ColorScheme-ViewHover {
        color:#000000;
      }
      .ColorScheme-ViewFocus{
        color:#5a5a5a;
      }
      .ColorScheme-ButtonText {
        color:#31363b;
      }
      .ColorScheme-ButtonBackground{
        color:#E9E8E8;
      }
      .ColorScheme-ButtonHover {
        color:#1489ff;
      }
      .ColorScheme-ButtonFocus{
        color:#2B74C7;
      }
</style>
  </defs>
  <sodipodi:namedview
     id="base"
     pagecolor="#aaaaaa"
     bordercolor="#666666"
     borderopacity="1.0"
     inkscape:pageopacity="0.13333333"
     inkscape:pageshadow="2"
     inkscape:zoom="2.8140945"
     inkscape:cx="99.734852"
     inkscape:cy="103.56712"
     inkscape:document-units="px"
     inkscape:current-layer="layer1"
     showgrid="false"
     inkscape:window-width="1519"
     inkscape:window-height="987"
     inkscape:window-x="151"
     inkscape:window-y="89"
     showguides="true"
     inkscape:guide-bbox="true"
     gridtolerance="6"
     inkscape:window-maximized="0"
     inkscape:snap-bbox="true"
     inkscape:pagecheckerboard="true"
     fit-margin-top="5"
     fit-margin-left="5"
     fit-margin-right="5"
     fit-margin-bottom="5"
     inkscape:showpageshadow="false">
    <inkscape:grid
       type="xygrid"
       id="grid7245"
       visible="true"
       enabled="true"
       empspacing="4"
       snapvisiblegridlinesonly="true"
       originx="-13.112868"
       originy="43.720541" />
  </sodipodi:namedview>
  <metadata
     id="metadata7234">
    <rdf:RDF>
      <cc:Work
         rdf:about="">
        <dc:format>image/svg+xml</dc:format>
        <dc:type
           rdf:resource="http://purl.org/dc/dcmitype/StillImage" />
        <dc:title></dc:title>
      </cc:Work>
    </rdf:RDF>
  </metadata>
  <g
     inkscape:label="Camada 1"
     inkscape:groupmode="layer"
     id="layer1"
     transform="translate(-227.64859,-349.56971)">
    <g
       transform="matrix(-1,0,0,1,553.89394,70.856339)"
       id="media-seek-backward">
      <rect
         y="349.73773"
         x="233.7907"
         height="21.99991"
         width="22"
         id="rect1526"
         style="opacity:0.01000001;fill:#ed1515;fill-opacity:0.00392157;stroke:none;stroke-width:1.49997652" />
      <g
         id="g1532"
         transform="translate(-2.7069933,-25.678566)">
        <path
           sodipodi:type="inkscape:offset"
           inkscape:radius="0.75277585"
           inkscape:original="M 214.65039 380.00391 L 214.65039 391.26172 L 224.40039 385.63281 L 214.65039 380.00391 z "
            class="ColorScheme-Text"
           style="opacity:1;fill:currentColor;fill-opacity:1;fill-rule:nonzero;stroke:none;stroke-width:9.06099987;stroke-linecap:round;stroke-miterlimit:4;stroke-dasharray:none;stroke-dashoffset:0;stroke-opacity:1"
           id="path1528"
           d="m 214.66797,379.25195 a 0.75285113,0.75285113 0 0 0 -0.76953,0.75196 v 11.25781 a 0.75285113,0.75285113 0 0 0 1.1289,0.65234 l 9.75,-5.6289 a 0.75285113,0.75285113 0 0 0 0,-1.30469 l -9.75,-5.62891 a 0.75285113,0.75285113 0 0 0 -0.35937,-0.0996 z"
           transform="matrix(0.71264918,0,0,0.69724167,94.438086,117.53669)" />
        <path
           transform="matrix(0.71264918,0,0,0.69724167,87.666655,117.53669)"
           d="m 214.66797,379.25195 a 0.75285113,0.75285113 0 0 0 -0.76953,0.75196 v 11.25781 a 0.75285113,0.75285113 0 0 0 1.1289,0.65234 l 9.75,-5.6289 a 0.75285113,0.75285113 0 0 0 0,-1.30469 l -9.75,-5.62891 a 0.75285113,0.75285113 0 0 0 -0.35937,-0.0996 z"
           id="path1530"
            class="ColorScheme-Text"
           style="opacity:1;fill:currentColor;fill-opacity:1;fill-rule:nonzero;stroke:none;stroke-width:9.06099987;stroke-linecap:round;stroke-miterlimit:4;stroke-dasharray:none;stroke-dashoffset:0;stroke-opacity:1"
           inkscape:original="M 214.65039 380.00391 L 214.65039 391.26172 L 224.40039 385.63281 L 214.65039 380.00391 z "
           inkscape:radius="0.75277585"
           sodipodi:type="inkscape:offset" />
      </g>
    </g>
    <g
       transform="translate(64.039303,-49.224711)"
       id="media-playback-playing">
      <rect
         y="404.50513"
         x="238.53572"
         height="21.99991"
         width="22"
         id="rect854"
         style="opacity:0.01000001;fill:#ed1515;fill-opacity:0.00392157;stroke:none;stroke-width:1.49997652" />
      <path
         transform="matrix(1.0563767,0,0,1.0335378,17.633128,16.938548)"
         d="m 214.66797,379.25195 a 0.75285113,0.75285113 0 0 0 -0.76953,0.75196 v 11.25781 a 0.75285113,0.75285113 0 0 0 1.1289,0.65234 l 9.75,-5.6289 a 0.75285113,0.75285113 0 0 0 0,-1.30469 l -9.75,-5.62891 a 0.75285113,0.75285113 0 0 0 -0.35937,-0.0996 z"
         id="path856"
          class="ColorScheme-Text"
         style="opacity:1;fill:currentColor;fill-opacity:1;fill-rule:nonzero;stroke:none;stroke-width:9.06099987;stroke-linecap:round;stroke-miterlimit:4;stroke-dasharray:none;stroke-dashoffset:0;stroke-opacity:1"
         inkscape:original="M 214.65039 380.00391 L 214.65039 391.26172 L 224.40039 385.63281 L 214.65039 380.00391 z "
         inkscape:radius="0.75277585"
         sodipodi:type="inkscape:offset" />
    </g>
    <g
       id="media-skip-forward"
       transform="translate(76.623935,49.25787)">
      <rect
         style="opacity:0.01000001;fill:#ed1515;fill-opacity:0.00392157;stroke:none;stroke-width:1.49997652"
         id="rect3003-7"
         width="22"
         height="21.99991"
         x="238.89166"
         y="355.03433" />
      <g
         transform="translate(-0.11348322,-0.38063517)"
         id="g1492">
        <path
           transform="matrix(0.71337326,0,0,0.69795009,91.420346,97.262173)"
           d="m 214.66797,379.25195 a 0.75285113,0.75285113 0 0 0 -0.76953,0.75196 v 11.25781 a 0.75285113,0.75285113 0 0 0 1.1289,0.65234 l 9.75,-5.6289 a 0.75285113,0.75285113 0 0 0 0,-1.30469 l -9.75,-5.62891 a 0.75285113,0.75285113 0 0 0 -0.35937,-0.0996 z"
           id="path1484"
            class="ColorScheme-Text"
           style="opacity:1;fill:currentColor;fill-opacity:1;fill-rule:nonzero;stroke:none;stroke-width:9.06099987;stroke-linecap:round;stroke-miterlimit:4;stroke-dasharray:none;stroke-dashoffset:0;stroke-opacity:1"
           inkscape:original="M 214.65039 380.00391 L 214.65039 391.26172 L 224.40039 385.63281 L 214.65039 380.00391 z "
           inkscape:radius="0.75277585"
           sodipodi:type="inkscape:offset" />
        <rect
           ry="0.67714924"
           y="361.96097"
           x="253.27725"
           height="8.8888998"
           width="2.7232683"
           id="rect1486"
            class="ColorScheme-Text"
           style="opacity:1;fill:currentColor;fill-opacity:1;fill-rule:nonzero;stroke:none;stroke-width:11.13759518;stroke-linecap:round;stroke-miterlimit:4;stroke-dasharray:none;stroke-dashoffset:0;stroke-opacity:1" />
      </g>
    </g>
    <g
       id="media-playback-pause"
       transform="translate(18.112866,11.834297)">
      <rect
         style="opacity:0.01000001;fill:#ed1515;fill-opacity:0.00392157;stroke:none;stroke-width:1.49997652"
         id="rect3003-0"
         width="22"
         height="21.99991"
         x="214.53572"
         y="404.50513" />
      <rect
         ry="1.0116502"
         y="408.86514"
         x="219.84319"
         height="13.279875"
         width="4.0685191"
         id="rect1454"
          class="ColorScheme-Text"
         style="opacity:1;fill:currentColor;fill-opacity:1;fill-rule:nonzero;stroke:none;stroke-width:16.63939095;stroke-linecap:round;stroke-miterlimit:4;stroke-dasharray:none;stroke-dashoffset:0;stroke-opacity:1" />
      <rect
         style="opacity:1;fill:currentColor;fill-opacity:1;fill-rule:nonzero;stroke:none;stroke-width:16.63939095;stroke-linecap:round;stroke-miterlimit:4;stroke-dasharray:none;stroke-dashoffset:0;stroke-opacity:1"
          class="ColorScheme-Text"
         id="rect844"
         width="4.0685191"
         height="13.279875"
         x="227.15973"
         y="408.86514"
         ry="1.0116502" />
    </g>
    <rect
       style="opacity:1;fill:#d0d4d8;fill-opacity:1;fill-rule:nonzero;stroke:none;stroke-width:8.4535532;stroke-linecap:round;stroke-miterlimit:4;stroke-dasharray:none;stroke-dashoffset:0;stroke-opacity:1"
       id="rect1465"
       width="2.0669894"
       height="6.7467694"
       x="232.73305"
       y="392.18021"
       ry="0.51396346" />
    <path
       sodipodi:type="inkscape:offset"
       inkscape:radius="0.75277585"
       inkscape:original="M 214.65039 380.00391 L 214.65039 391.26172 L 224.40039 385.63281 L 214.65039 380.00391 z "
       style="opacity:1;fill:#d0d4d8;fill-opacity:1;fill-rule:nonzero;stroke:none;stroke-width:9.06099987;stroke-linecap:round;stroke-miterlimit:4;stroke-dasharray:none;stroke-dashoffset:0;stroke-opacity:1"
       id="path1479"
       d="m 214.66797,379.25195 a 0.75285113,0.75285113 0 0 0 -0.76953,0.75196 v 11.25781 a 0.75285113,0.75285113 0 0 0 1.1289,0.65234 l 9.75,-5.6289 a 0.75285113,0.75285113 0 0 0 0,-1.30469 l -9.75,-5.62891 a 0.75285113,0.75285113 0 0 0 -0.35937,-0.0996 z"
       transform="matrix(0.54145787,0,0,0.52975152,122.0833,186.34029)" />
    <g
       transform="matrix(-1,0,0,1,608.43355,41.706596)"
       id="media-skip-backward">
      <rect
         y="355.03433"
         x="238.89166"
         height="21.99991"
         width="22"
         id="rect1500"
         style="opacity:0.01000001;fill:#ed1515;fill-opacity:0.00392157;stroke:none;stroke-width:1.49997652" />
      <g
         id="g1506"
         transform="translate(-0.11348322,-0.38063517)">
        <path
           sodipodi:type="inkscape:offset"
           inkscape:radius="0.75277585"
           inkscape:original="M 214.65039 380.00391 L 214.65039 391.26172 L 224.40039 385.63281 L 214.65039 380.00391 z "
            class="ColorScheme-Text"
           style="opacity:1;fill:currentColor;fill-opacity:1;fill-rule:nonzero;stroke:none;stroke-width:9.06099987;stroke-linecap:round;stroke-miterlimit:4;stroke-dasharray:none;stroke-dashoffset:0;stroke-opacity:1"
           id="path1502"
           d="m 214.66797,379.25195 a 0.75285113,0.75285113 0 0 0 -0.76953,0.75196 v 11.25781 a 0.75285113,0.75285113 0 0 0 1.1289,0.65234 l 9.75,-5.6289 a 0.75285113,0.75285113 0 0 0 0,-1.30469 l -9.75,-5.62891 a 0.75285113,0.75285113 0 0 0 -0.35937,-0.0996 z"
           transform="matrix(0.71058835,0,0,0.69522539,92.039437,98.312905)" />
        <rect
           style="opacity:1;fill:currentColor;fill-opacity:1;fill-rule:nonzero;stroke:none;stroke-width:11.09411621;stroke-linecap:round;stroke-miterlimit:4;stroke-dasharray:none;stroke-dashoffset:0;stroke-opacity:1"
           id="rect1504"
            class="ColorScheme-Text"
           width="2.7126369"
           height="8.8541994"
           x="253.26448"
           y="361.97836"
           ry="0.67450577" />
      </g>
    </g>
    <g
       id="media-seek-forward"
       transform="translate(64.082422,32.406969)">
      <rect
         style="opacity:0.01000001;fill:#ed1515;fill-opacity:0.00392157;stroke:none;stroke-width:1.49997652"
         id="rect3003-2"
         width="22"
         height="21.99991"
         x="233.7907"
         y="349.73773" />
      <g
         transform="translate(-2.7069933,-25.678566)"
         id="g1516">
        <path
           transform="matrix(0.71264918,0,0,0.69724167,94.438086,117.53669)"
           d="m 214.66797,379.25195 a 0.75285113,0.75285113 0 0 0 -0.76953,0.75196 v 11.25781 a 0.75285113,0.75285113 0 0 0 1.1289,0.65234 l 9.75,-5.6289 a 0.75285113,0.75285113 0 0 0 0,-1.30469 l -9.75,-5.62891 a 0.75285113,0.75285113 0 0 0 -0.35937,-0.0996 z"
           id="path1510"
            class="ColorScheme-Text"
           style="opacity:1;fill:currentColor;fill-opacity:1;fill-rule:nonzero;stroke:none;stroke-width:9.06099987;stroke-linecap:round;stroke-miterlimit:4;stroke-dasharray:none;stroke-dashoffset:0;stroke-opacity:1"
           inkscape:original="M 214.65039 380.00391 L 214.65039 391.26172 L 224.40039 385.63281 L 214.65039 380.00391 z "
           inkscape:radius="0.75277585"
           sodipodi:type="inkscape:offset" />
        <path
           sodipodi:type="inkscape:offset"
           inkscape:radius="0.75277585"
            class="ColorScheme-Text"
           inkscape:original="M 214.65039 380.00391 L 214.65039 391.26172 L 224.40039 385.63281 L 214.65039 380.00391 z "
           style="opacity:1;fill:currentColor;fill-opacity:1;fill-rule:nonzero;stroke:none;stroke-width:9.06099987;stroke-linecap:round;stroke-miterlimit:4;stroke-dasharray:none;stroke-dashoffset:0;stroke-opacity:1"
           id="path1512"
           d="m 214.66797,379.25195 a 0.75285113,0.75285113 0 0 0 -0.76953,0.75196 v 11.25781 a 0.75285113,0.75285113 0 0 0 1.1289,0.65234 l 9.75,-5.6289 a 0.75285113,0.75285113 0 0 0 0,-1.30469 l -9.75,-5.62891 a 0.75285113,0.75285113 0 0 0 -0.35937,-0.0996 z"
           transform="matrix(0.71264918,0,0,0.69724167,87.666655,117.53669)" />
      </g>
    </g>
    <g
       id="media-playback-stop"
       transform="translate(-5.8902136,-49.935419)">
      <rect
         style="opacity:0.01000001;fill:#ed1515;fill-opacity:0.00392157;stroke:none;stroke-width:1.49997652"
         id="rect3003-3"
         width="22"
         height="21.99991"
         x="262.53571"
         y="404.50513" />
      <rect
         style="opacity:1;fill:currentColor;fill-opacity:1;fill-rule:nonzero;stroke:none;stroke-width:26.53520012;stroke-linecap:round;stroke-miterlimit:4;stroke-dasharray:none;stroke-dashoffset:0;stroke-opacity:1"
          class="ColorScheme-Text"
         id="rect2155"
         width="11.721957"
         height="11.721957"
         x="267.67471"
         y="409.6441"
         ry="0.89296931" />
    </g>
    <g
       id="media-record"
       transform="translate(9.0199897,12.734372)">
      <rect
         style="opacity:0.01000001;fill:#ed1515;fill-opacity:0.00392157;stroke:none;stroke-width:1.49997652"
         id="rect3003-03"
         width="22"
         height="21.99991"
         x="262.49561"
         y="369.55792" />
      <rect
         style="opacity:1;fill:#ea79a2;fill-opacity:1;fill-rule:nonzero;stroke:none;stroke-width:15.27330208;stroke-linecap:round;stroke-miterlimit:4;stroke-dasharray:none;stroke-dashoffset:0;stroke-opacity:1"
         id="rect2166"
         width="6.7470002"
         height="6.7470002"
         x="270.1221"
         y="377.18439"
         ry="3.3735001" />
    </g>
    <g
       id="media-eject"
       transform="translate(22.007003,15.693)">
      <rect
         style="opacity:0.01000001;fill:#ed1515;fill-opacity:0.00392157;stroke:none;stroke-width:1.24997437"
         id="rect3003"
         width="22"
         height="21.999956"
         x="233.75903"
         y="368.3385" />
      <g
         transform="translate(3.4217496,-0.63081465)"
         id="g2180">
        <path
           transform="matrix(0,-0.66459511,0.77785649,0,-58.63003,523.69737)"
           d="m 214.66797,379.25195 a 0.75285113,0.75285113 0 0 0 -0.76953,0.75196 v 11.25781 a 0.75285113,0.75285113 0 0 0 1.1289,0.65234 l 9.75,-5.6289 a 0.75285113,0.75285113 0 0 0 0,-1.30469 l -9.75,-5.62891 a 0.75285113,0.75285113 0 0 0 -0.35937,-0.0996 z"
           id="path2174"
            class="ColorScheme-Text"
           style="opacity:1;fill:currentColor;fill-opacity:1;fill-rule:nonzero;stroke:none;stroke-width:9.06099987;stroke-linecap:round;stroke-miterlimit:4;stroke-dasharray:none;stroke-dashoffset:0;stroke-opacity:1"
           inkscape:original="M 214.65039 380.00391 L 214.65039 391.26172 L 224.40039 385.63281 L 214.65039 380.00391 z "
           inkscape:radius="0.75277585"
           sodipodi:type="inkscape:offset" />
        <rect
           ry="0.7546742"
           y="-246.29056"
           x="382.84268"
           height="9.9065657"
           width="3.0350478"
           id="rect2176"
            class="ColorScheme-Text"
           style="opacity:1;fill:currentColor;fill-opacity:1;fill-rule:nonzero;stroke:none;stroke-width:12.41270828;stroke-linecap:round;stroke-miterlimit:4;stroke-dasharray:none;stroke-dashoffset:0;stroke-opacity:1"
           transform="rotate(90)" />
      </g>
    </g>
    <g
       transform="translate(41.481282,38.720539)"
       id="media-playback-paused">
      <rect
         y="404.50513"
         x="214.53572"
         height="21.99991"
         width="22"
         id="rect862"
         style="opacity:0.01000001;fill:#ed1515;fill-opacity:0.00392157;stroke:none;stroke-width:1.49997652" />
      <rect
         style="opacity:1;fill:currentColor;fill-opacity:1;fill-rule:nonzero;stroke:none;stroke-width:16.63939095;stroke-linecap:round;stroke-miterlimit:4;stroke-dasharray:none;stroke-dashoffset:0;stroke-opacity:1"
         id="rect864"
          class="ColorScheme-Text"
         width="4.0685191"
         height="13.279875"
         x="219.84319"
         y="408.86514"
         ry="1.0116502" />
      <rect
         ry="1.0116502"
         y="408.86514"
         x="227.15973"
         height="13.279875"
         width="4.0685191"
         id="rect866"
          class="ColorScheme-Text"
         style="opacity:1;fill:currentColor;fill-opacity:1;fill-rule:nonzero;stroke:none;stroke-width:16.63939095;stroke-linecap:round;stroke-miterlimit:4;stroke-dasharray:none;stroke-dashoffset:0;stroke-opacity:1" />
    </g>
    <g
       id="media-playback-start"
       transform="translate(107.88649,-49.601621)">
      <rect
         style="opacity:0.01000001;fill:#ed1515;fill-opacity:0.00392157;stroke:none;stroke-width:1.49997652"
         id="rect870"
         width="22"
         height="21.99991"
         x="238.53572"
         y="404.50513" />
      <path
         sodipodi:type="inkscape:offset"
         inkscape:radius="0.75277585"
         inkscape:original="M 214.65039 380.00391 L 214.65039 391.26172 L 224.40039 385.63281 L 214.65039 380.00391 z "
          class="ColorScheme-Text"
         style="opacity:1;fill:currentColor;fill-opacity:1;fill-rule:nonzero;stroke:none;stroke-width:9.06099987;stroke-linecap:round;stroke-miterlimit:4;stroke-dasharray:none;stroke-dashoffset:0;stroke-opacity:1"
         id="path872"
         d="m 214.66797,379.25195 a 0.75285113,0.75285113 0 0 0 -0.76953,0.75196 v 11.25781 a 0.75285113,0.75285113 0 0 0 1.1289,0.65234 l 9.75,-5.6289 a 0.75285113,0.75285113 0 0 0 0,-1.30469 l -9.75,-5.62891 a 0.75285113,0.75285113 0 0 0 -0.35937,-0.0996 z"
         transform="matrix(1.0563767,0,0,1.0335378,17.633128,16.938548)" />
    </g>
  </g>
</svg>
